<?xml version="1.0" encoding="UTF-8"?>
<svg id="a" data-name="Layer 1" xmlns="http://www.w3.org/2000/svg" viewBox="0 0 400 400">
  <defs>
    <style>
      .d {
        fill: #235f9d;
        stroke-width: 0px;
      }
    </style>
  </defs>
  <g id="b" data-name="icon">
    <path class="d" d="M389.8,304.2c0,47.2-38.2,85.5-85.5,85.6-47.2,0-85.5-38.2-85.6-85.5,0-47.2,38.2-85.5,85.5-85.6h0c47.3,0,85.6,38.3,85.6,85.5Z"/>
    <path class="d" d="M10.2,218.8h171v171c-94.5,0-171-76.6-171-171Z"/>
    <path class="d" d="M60.3,60.3C92.3,28.2,135.9,10.1,181.2,10.2v171.1H10.2c-.1-45.5,17.9-89,50.1-121Z"/>
    <path class="d" d="M339.7,131.1c-32,32.1-75.6,50.2-120.9,50.1V10.2h171c.1,45.3-18,88.8-50.1,120.9Z"/>
  </g>
</svg>