<?xml version="1.0" encoding="UTF-8"?>
<svg xmlns="http://www.w3.org/2000/svg" viewBox="0 0 400 400">
  <defs>
    <style>
      .c {
        fill: #fff;
      }

      .c, .d {
        stroke-width: 0px;
      }

      .d {
        fill: #235f9d;
      }
    </style>
  </defs>
  <g id="a" data-name="Layer 1">
    <path class="d" d="M389.8,304.2c0,47.2-38.2,85.5-85.5,85.6-47.2,0-85.5-38.2-85.6-85.5,0-47.2,38.2-85.5,85.5-85.6h0c47.3,0,85.6,38.3,85.6,85.5Z"/>
    <path class="d" d="M10.2,218.8h171v171c-94.5,0-171-76.6-171-171Z"/>
    <path class="d" d="M60.3,60.3C92.3,28.2,135.9,10.1,181.2,10.2v171.1H10.2c-.1-45.5,17.9-89,50.1-121Z"/>
    <path class="d" d="M339.7,131.1c-32,32.1-75.6,50.2-120.9,50.1V10.2h171c.1,45.3-18,88.8-50.1,120.9Z"/>
  </g>
  <g id="b" data-name="Layer 2">
    <path class="c" d="M348.33,258.69c1.95,1.41,2.76,3.3,2.42,5.65l-11.61,75.7c-.34,1.95-1.31,3.36-2.93,4.24-1.62.87-3.3.94-5.05.2l-21.8-8.98-12.41,13.42c-1.88,2.02-4.04,2.52-6.46,1.51-2.49-1.01-3.73-2.83-3.73-5.45v-15.24c0-.74.27-1.38.81-1.92l30.48-33.31c1.21-1.34,1.18-2.66-.1-3.94-.47-.61-1.11-.91-1.92-.91s-1.48.24-2.02.71l-37.04,32.9-16.05-7.97c-2.02-1.08-3.1-2.76-3.23-5.05-.13-2.22.84-3.97,2.93-5.25l81.55-46.63c2.02-1.21,4.07-1.11,6.16.3Z"/>
  </g>
</svg>