<?xml version="1.0" encoding="UTF-8"?>
<svg xmlns="http://www.w3.org/2000/svg" viewBox="0 0 400 400">
  <defs>
    <style>
      .c {
        fill: #fff;
      }

      .c, .d {
        stroke-width: 0px;
      }

      .d {
        fill: #235f9d;
      }
    </style>
  </defs>
  <g id="a" data-name="Layer 1">
    <path class="d" d="M389.8,304.2c0,47.2-38.2,85.5-85.5,85.6-47.2,0-85.5-38.2-85.6-85.5,0-47.2,38.2-85.5,85.5-85.6h0c47.3,0,85.6,38.3,85.6,85.5Z"/>
    <path class="d" d="M10.2,218.8h171v171c-94.5,0-171-76.6-171-171Z"/>
    <path class="d" d="M60.3,60.3C92.3,28.2,135.9,10.1,181.2,10.2v171.1H10.2c-.1-45.5,17.9-89,50.1-121Z"/>
    <path class="d" d="M339.7,131.1c-32,32.1-75.6,50.2-120.9,50.1V10.2h171c.1,45.3-18,88.8-50.1,120.9Z"/>
  </g>
  <g id="b" data-name="Layer 2">
    <path class="c" d="M291.86,263c5.29,0,10.13,1.29,14.53,3.87,4.4,2.58,7.88,6.07,10.46,10.46,2.58,4.4,3.87,9.24,3.87,14.53,0,6.48-1.88,12.23-5.65,17.25l3.37,3.47h2.28l24.79,24.79-8.13,8.13-24.79-24.79v-2.28l-3.47-3.37c-5.02,3.77-10.78,5.65-17.25,5.65-5.29,0-10.13-1.29-14.53-3.87-4.4-2.58-7.88-6.06-10.46-10.46-2.58-4.4-3.87-9.24-3.87-14.53s1.29-10.13,3.87-14.53c2.58-4.4,6.06-7.88,10.46-10.46,4.4-2.58,9.24-3.87,14.53-3.87Z"/>
  </g>
</svg>