<?xml version="1.0" encoding="UTF-8"?>
<svg id="b" data-name="Layer 2" xmlns="http://www.w3.org/2000/svg" viewBox="0 0 400 400">
  <defs>
    <style>
      .c {
        fill: #235f9d;
        stroke-width: 0px;
      }
    </style>
  </defs>
  <path class="c" d="M10.2,218.8h171v171c-94.5,0-171-76.6-171-171Z"/>
  <path class="c" d="M60.3,60.3C92.3,28.2,135.9,10.1,181.2,10.2v171.1H10.2c-.1-45.5,17.9-89,50.1-121Z"/>
  <path class="c" d="M339.7,131.1c-32,32.1-75.6,50.2-120.9,50.1V10.2h171c.1,45.3-18,88.8-50.1,120.9Z"/>
  <path class="c" d="M304.2,218.7c-47.3.1-85.5,38.4-85.5,85.6.1,47.3,38.4,85.5,85.6,85.5,47.3-.1,85.5-38.4,85.5-85.6s-38.3-85.5-85.6-85.5ZM343.67,313.12h-29.1v32.19h-20.64v-32.19h-29.1v-17.75h29.1v-32.19h20.64v32.19h29.1v17.75Z"/>
</svg>