<?xml version="1.0" encoding="UTF-8"?>
<svg id="b" data-name="Layer 2" xmlns="http://www.w3.org/2000/svg" viewBox="0 0 400 400">
  <defs>
    <style>
      .c {
        fill: #235f9d;
        stroke-width: 0px;
      }
    </style>
  </defs>
  <path class="c" d="M10.2,218.8h171v171c-94.5,0-171-76.6-171-171Z"/>
  <path class="c" d="M60.3,60.3C92.3,28.2,135.9,10.1,181.2,10.2v171.1H10.2c-.1-45.5,17.9-89,50.1-121Z"/>
  <path class="c" d="M339.7,131.1c-32,32.1-75.6,50.2-120.9,50.1V10.2h171c.1,45.3-18,88.8-50.1,120.9Z"/>
  <path class="c" d="M304.2,218.7c-47.3.1-85.5,38.4-85.5,85.6.1,47.3,38.4,85.5,85.6,85.5,47.3-.1,85.5-38.4,85.5-85.6s-38.3-85.5-85.6-85.5ZM264.89,343.58l7.35-27.61,9.14.99.7,9.54,9.54.6.99,8.94-27.71,7.55ZM296.68,334.05l-1.39-10.73-9.34-.6-.7-9.54-10.73-1.19,33.57-33.57,21.95,22.05-33.37,33.57ZM341.67,288.75l-8.74,8.74-21.95-21.85,8.74-8.74c1.32-1.32,2.81-1.99,4.47-1.99s3.14.66,4.47,1.99l13.01,13.11c1.26,1.19,1.9,2.65,1.94,4.37.03,1.72-.61,3.18-1.94,4.37Z"/>
</svg>