<?xml version="1.0" encoding="UTF-8"?>
<svg xmlns="http://www.w3.org/2000/svg" viewBox="0 0 379.6 379.6">
  <defs>
    <style>
      .c {
        fill: #fff;
      }

      .c, .d {
        stroke-width: 0px;
      }

      .d {
        fill: #235f9d;
      }
    </style>
  </defs>
  <g id="a" data-name="Layer 1">
    <path class="d" d="M379.6,294c0,47.2-38.2,85.5-85.5,85.6-47.2,0-85.5-38.2-85.6-85.5,0-47.2,38.2-85.5,85.5-85.6h0c47.3,0,85.6,38.3,85.6,85.5Z"/>
    <path class="d" d="M0,208.6h171v171C76.5,379.6,0,303,0,208.6Z"/>
    <path class="d" d="M50.1,50.1C82.1,18,125.7-.1,171,0v171.1H0c-.1-45.5,17.9-89,50.1-121Z"/>
    <path class="d" d="M329.5,120.9c-32,32.1-75.6,50.2-120.9,50.1V0h171c.1,45.3-18,88.8-50.1,120.9Z"/>
  </g>
  <g id="b" data-name="Layer 2">
    <path class="c" d="M283.73,335.12v-32.19h-29.1v-17.75h29.1v-32.19h20.64v32.19h29.1v17.75h-29.1v32.19h-20.64Z"/>
  </g>
</svg>