<?xml version="1.0" encoding="UTF-8"?>
<svg id="a" data-name="Layer 1" xmlns="http://www.w3.org/2000/svg" viewBox="0 0 512 512">
  <defs>
    <style>
      .b {
        fill: #000;
      }

      .b, .c {
        stroke-width: 0px;
      }

      .c {
        fill: #006837;
      }
    </style>
  </defs>
  <g>
    <circle class="c" cx="221.46" cy="434.04" r="6.38"/>
    <circle class="c" cx="236.07" cy="442.01" r="6.38"/>
    <circle class="c" cx="236.07" cy="424.74" r="6.38"/>
    <circle class="c" cx="253.34" cy="444.66" r="6.38"/>
    <path class="c" d="M251.08,432.04c0,2.05-1.67,3.72-3.72,3.72s-3.72-1.67-3.72-3.72,1.67-3.72,3.72-3.72,3.72,1.67,3.72,3.72Z"/>
    <path class="c" d="M259.72,419.42c0,3.52-2.86,6.38-6.38,6.38-3.52,0-6.38-2.86-6.38-6.38,0-3.52,2.86-6.38,6.38-6.38,3.52,0,6.38,2.86,6.38,6.38Z"/>
    <circle class="c" cx="269.29" cy="414.11" r="6.38"/>
    <circle class="c" cx="270.61" cy="447.32" r="6.38"/>
    <circle class="c" cx="266.63" cy="431.38" r="6.38"/>
    <circle class="c" cx="286.56" cy="451.31" r="6.38"/>
    <circle class="c" cx="283.9" cy="406.13" r="6.38"/>
    <circle class="c" cx="298.52" cy="398.16" r="6.38"/>
    <circle class="c" cx="281.91" cy="420.08" r="3.72"/>
    <circle class="c" cx="275.93" cy="424.74" r="2.13"/>
    <circle class="c" cx="255.25" cy="433.57" r="2.13"/>
    <circle class="c" cx="162.65" cy="411.48" r="6.38"/>
    <circle class="c" cx="173.65" cy="423.97" r="6.38"/>
    <circle class="c" cx="179.56" cy="407.74" r="6.38"/>
    <circle class="c" cx="188.98" cy="432.38" r="6.38"/>
    <circle class="c" cx="187.67" cy="418.47" r="3.72"/>
    <circle class="c" cx="197.61" cy="408.66" r="6.38"/>
    <circle class="c" cx="214.41" cy="409.12" r="6.38"/>
    <circle class="c" cx="204.3" cy="440.78" r="6.38"/>
    <circle class="c" cx="206.01" cy="424.44" r="6.38"/>
    <circle class="c" cx="217.92" cy="449.98" r="6.38"/>
    <circle class="c" cx="230.87" cy="406.62" r="6.38"/>
    <circle class="c" cx="247.33" cy="404.13" r="6.38"/>
    <circle class="c" cx="224.23" cy="419.05" r="3.72"/>
    <circle class="c" cx="217.02" cy="421.38" r="2.13"/>
    <circle class="c" cx="194.56" cy="422.61" r="2.13"/>
    <circle class="c" cx="115.1" cy="370.18" r="6.38"/>
    <circle class="c" cx="121.17" cy="385.68" r="6.38"/>
    <circle class="c" cx="132.27" cy="372.45" r="6.38"/>
    <circle class="c" cx="132.69" cy="398.82" r="6.38"/>
    <circle class="c" cx="136.23" cy="385.31" r="3.72"/>
    <circle class="c" cx="148.92" cy="379.48" r="6.38"/>
    <circle class="c" cx="164.55" cy="385.66" r="6.38"/>
    <circle class="c" cx="144.22" cy="411.96" r="6.38"/>
    <circle class="c" cx="151.41" cy="397.18" r="6.38"/>
    <circle class="c" cx="153.87" cy="425.26" r="6.38"/>
    <circle class="c" cx="180.87" cy="388.94" r="6.38"/>
    <circle class="c" cx="197.19" cy="392.23" r="6.38"/>
    <circle class="c" cx="170.38" cy="398.35" r="3.72"/>
    <circle class="c" cx="162.81" cy="398.07" r="2.13"/>
    <circle class="c" cx="141.28" cy="391.55" r="2.13"/>
    <circle class="c" cx="84.54" cy="315.1" r="6.38"/>
    <circle class="c" cx="84.95" cy="331.74" r="6.38"/>
    <circle class="c" cx="99.91" cy="323.11" r="6.38"/>
    <circle class="c" cx="91.28" cy="348.03" r="6.38"/>
    <circle class="c" cx="99.22" cy="336.54" r="3.72"/>
    <circle class="c" cx="113.14" cy="335.41" r="6.38"/>
    <circle class="c" cx="125.72" cy="346.56" r="6.38"/>
    <circle class="c" cx="97.62" cy="364.32" r="6.38"/>
    <circle class="c" cx="109.43" cy="352.89" r="6.38"/>
    <circle class="c" cx="102.14" cy="380.12" r="6.38"/>
    <circle class="c" cx="139.93" cy="355.23" r="6.38"/>
    <circle class="c" cx="154.14" cy="363.9" r="6.38"/>
    <circle class="c" cx="126.85" cy="360.48" r="3.72"/>
    <circle class="c" cx="119.84" cy="357.63" r="2.13"/>
    <circle class="c" cx="101.84" cy="344.14" r="2.13"/>
    <circle class="c" cx="74.67" cy="252.9" r="6.38"/>
    <circle class="c" cx="69.36" cy="268.67" r="6.38"/>
    <circle class="c" cx="86.37" cy="265.67" r="6.38"/>
    <circle class="c" cx="69.74" cy="286.14" r="6.38"/>
    <circle class="c" cx="81.13" cy="278.06" r="3.72"/>
    <circle class="c" cx="94.6" cy="281.76" r="6.38"/>
    <circle class="c" cx="102.6" cy="296.54" r="6.38"/>
    <circle class="c" cx="70.12" cy="303.62" r="6.38"/>
    <circle class="c" cx="85.13" cy="296.92" r="6.38"/>
    <circle class="c" cx="68.97" cy="320.01" r="6.38"/>
    <circle class="c" cx="112.99" cy="309.55" r="6.38"/>
    <circle class="c" cx="123.38" cy="322.56" r="6.38"/>
    <circle class="c" cx="98.91" cy="310.01" r="3.72"/>
    <circle class="c" cx="93.29" cy="304.93" r="2.13"/>
    <circle class="c" cx="80.99" cy="286.1" r="2.13"/>
    <circle class="c" cx="86.67" cy="191.07" r="6.38"/>
    <circle class="c" cx="76.28" cy="204.07" r="6.38"/>
    <circle class="c" cx="93.29" cy="207.07" r="6.38"/>
    <circle class="c" cx="70.66" cy="220.62" r="6.38"/>
    <circle class="c" cx="84.13" cy="216.93" r="3.72"/>
    <circle class="c" cx="95.52" cy="225.01" r="6.38"/>
    <circle class="c" cx="97.99" cy="241.63" r="6.38"/>
    <circle class="c" cx="65.05" cy="237.17" r="6.38"/>
    <circle class="c" cx="81.44" cy="236.01" r="6.38"/>
    <circle class="c" cx="58.35" cy="252.18" r="6.38"/>
    <circle class="c" cx="103.3" cy="257.41" r="6.38"/>
    <circle class="c" cx="108.61" cy="273.18" r="6.38"/>
    <circle class="c" cx="89.91" cy="253.02" r="3.72"/>
    <circle class="c" cx="86.37" cy="246.33" r="2.13"/>
    <circle class="c" cx="81.25" cy="224.43" r="2.13"/>
    <circle class="c" cx="119.09" cy="137.07" r="6.38"/>
    <circle class="c" cx="104.88" cy="145.74" r="6.38"/>
    <circle class="c" cx="119.84" cy="154.37" r="6.38"/>
    <circle class="c" cx="93.94" cy="159.37" r="6.38"/>
    <circle class="c" cx="107.86" cy="160.5" r="3.72"/>
    <circle class="c" cx="115.8" cy="171.99" r="6.38"/>
    <circle class="c" cx="112.43" cy="188.45" r="6.38"/>
    <circle class="c" cx="83" cy="173" r="6.38"/>
    <circle class="c" cx="98.8" cy="177.52" r="6.38"/>
    <circle class="c" cx="71.58" cy="184.81" r="6.38"/>
    <circle class="c" cx="112.03" cy="205.1" r="6.38"/>
    <circle class="c" cx="111.63" cy="221.74" r="6.38"/>
    <circle class="c" cx="100.94" cy="196.39" r="3.72"/>
    <circle class="c" cx="99.91" cy="188.89" r="2.13"/>
    <circle class="c" cx="102.59" cy="166.56" r="2.13"/>
    <circle class="c" cx="168.02" cy="97.41" r="6.38"/>
    <circle class="c" cx="151.7" cy="100.7" r="6.38"/>
    <circle class="c" cx="162.81" cy="113.93" r="6.38"/>
    <circle class="c" cx="136.76" cy="109.77" r="6.38"/>
    <circle class="c" cx="149.46" cy="115.59" r="3.72"/>
    <circle class="c" cx="152.99" cy="129.1" r="6.38"/>
    <circle class="c" cx="144.19" cy="143.42" r="6.38"/>
    <circle class="c" cx="121.83" cy="118.83" r="6.38"/>
    <circle class="c" cx="135.13" cy="128.48" r="6.38"/>
    <circle class="c" cx="107.05" cy="126.03" r="6.38"/>
    <circle class="c" cx="138.12" cy="158.92" r="6.38"/>
    <circle class="c" cx="132.05" cy="174.43" r="6.38"/>
    <circle class="c" cx="130.68" cy="146.96" r="3.72"/>
    <circle class="c" cx="132.27" cy="139.55" r="2.13"/>
    <circle class="c" cx="142.43" cy="119.49" r="2.13"/>
    <circle class="c" cx="227.57" cy="76.89" r="6.38"/>
    <circle class="c" cx="211.11" cy="74.39" r="6.38"/>
    <circle class="c" cx="217.02" cy="90.62" r="6.38"/>
    <circle class="c" cx="193.97" cy="77.8" r="6.38"/>
    <circle class="c" cx="203.91" cy="87.62" r="3.72"/>
    <circle class="c" cx="202.6" cy="101.53" r="6.38"/>
    <circle class="c" cx="189.44" cy="111.97" r="6.38"/>
    <circle class="c" cx="176.83" cy="81.21" r="6.38"/>
    <circle class="c" cx="186.03" cy="94.83" r="6.38"/>
    <circle class="c" cx="160.49" cy="82.92" r="6.38"/>
    <circle class="c" cx="178.43" cy="124.46" r="6.38"/>
    <circle class="c" cx="167.43" cy="136.95" r="6.38"/>
    <circle class="c" cx="175.53" cy="110.67" r="3.72"/>
    <circle class="c" cx="179.56" cy="104.26" r="2.13"/>
    <circle class="c" cx="195.97" cy="88.88" r="2.13"/>
    <circle class="c" cx="290.54" cy="77.96" r="6.38"/>
    <path class="c" d="M269.55,69.99c0-3.52,2.86-6.38,6.38-6.38,3.52,0,6.38,2.86,6.38,6.38,0,3.52-2.86,6.38-6.38,6.38-3.52,0-6.38-2.86-6.38-6.38Z"/>
    <circle class="c" cx="275.93" cy="87.26" r="6.38"/>
    <path class="c" d="M252.28,67.34c0-3.52,2.86-6.38,6.38-6.38s6.38,2.86,6.38,6.38-2.86,6.38-6.38,6.38c-3.52,0-6.38-2.86-6.38-6.38Z"/>
    <path class="c" d="M260.92,79.96c0-2.05,1.67-3.72,3.72-3.72,2.05,0,3.72,1.67,3.72,3.72s-1.67,3.72-3.72,3.72c-2.05,0-3.72-1.67-3.72-3.72Z"/>
    <circle class="c" cx="258.66" cy="92.58" r="6.38"/>
    <path class="c" d="M236.34,97.89c0-3.52,2.86-6.38,6.38-6.38s6.38,2.86,6.38,6.38c0,3.52-2.86,6.38-6.38,6.38-3.52,0-6.38-2.86-6.38-6.38Z"/>
    <path class="c" d="M235.01,64.68c0-3.52,2.86-6.38,6.38-6.38s6.38,2.86,6.38,6.38c0,3.52-2.86,6.38-6.38,6.38-3.52,0-6.38-2.86-6.38-6.38Z"/>
    <path class="c" d="M238.99,80.62c0-3.52,2.86-6.38,6.38-6.38s6.38,2.86,6.38,6.38-2.86,6.38-6.38,6.38c-3.52,0-6.38-2.86-6.38-6.38Z"/>
    <path class="c" d="M219.06,60.69c0-3.52,2.86-6.38,6.38-6.38,3.52,0,6.38,2.86,6.38,6.38,0,3.52-2.86,6.38-6.38,6.38-3.52,0-6.38-2.86-6.38-6.38Z"/>
    <circle class="c" cx="228.1" cy="105.87" r="6.38"/>
    <path class="c" d="M207.11,113.84c0-3.52,2.86-6.38,6.38-6.38s6.38,2.86,6.38,6.38-2.86,6.38-6.38,6.38c-3.52,0-6.38-2.86-6.38-6.38Z"/>
    <path class="c" d="M226.37,91.92c0-2.05,1.67-3.72,3.72-3.72s3.72,1.67,3.72,3.72-1.67,3.72-3.72,3.72c-2.05,0-3.72-1.67-3.72-3.72Z"/>
    <path class="c" d="M233.94,87.26c0-1.17.95-2.13,2.13-2.13s2.13.95,2.13,2.13-.95,2.13-2.13,2.13c-1.17,0-2.13-.95-2.13-2.13Z"/>
    <path class="c" d="M254.62,78.43c0-1.17.95-2.13,2.13-2.13s2.13.95,2.13,2.13-.95,2.13-2.13,2.13c-1.17,0-2.13-.95-2.13-2.13Z"/>
    <circle class="c" cx="349.35" cy="100.52" r="6.38"/>
    <circle class="c" cx="338.35" cy="88.03" r="6.38"/>
    <circle class="c" cx="332.44" cy="104.26" r="6.38"/>
    <circle class="c" cx="323.02" cy="79.62" r="6.38"/>
    <circle class="c" cx="324.33" cy="93.53" r="3.72"/>
    <circle class="c" cx="314.39" cy="103.34" r="6.38"/>
    <circle class="c" cx="297.59" cy="102.88" r="6.38"/>
    <circle class="c" cx="307.7" cy="71.22" r="6.38"/>
    <circle class="c" cx="305.99" cy="87.56" r="6.38"/>
    <circle class="c" cx="294.08" cy="62.02" r="6.38"/>
    <circle class="c" cx="281.13" cy="105.38" r="6.38"/>
    <circle class="c" cx="264.67" cy="107.87" r="6.38"/>
    <circle class="c" cx="287.77" cy="92.95" r="3.72"/>
    <circle class="c" cx="294.98" cy="90.62" r="2.13"/>
    <circle class="c" cx="317.44" cy="89.39" r="2.13"/>
    <circle class="c" cx="396.9" cy="141.82" r="6.38"/>
    <circle class="c" cx="390.83" cy="126.32" r="6.38"/>
    <circle class="c" cx="379.73" cy="139.55" r="6.38"/>
    <circle class="c" cx="379.31" cy="113.18" r="6.38"/>
    <circle class="c" cx="375.77" cy="126.69" r="3.72"/>
    <circle class="c" cx="363.08" cy="132.52" r="6.38"/>
    <circle class="c" cx="347.45" cy="126.34" r="6.38"/>
    <circle class="c" cx="367.78" cy="100.04" r="6.38"/>
    <circle class="c" cx="360.59" cy="114.82" r="6.38"/>
    <circle class="c" cx="358.13" cy="86.74" r="6.38"/>
    <circle class="c" cx="331.13" cy="123.06" r="6.38"/>
    <circle class="c" cx="314.81" cy="119.77" r="6.38"/>
    <circle class="c" cx="341.62" cy="113.65" r="3.72"/>
    <circle class="c" cx="349.19" cy="113.93" r="2.13"/>
    <circle class="c" cx="370.72" cy="120.45" r="2.13"/>
    <circle class="c" cx="427.46" cy="196.9" r="6.38"/>
    <circle class="c" cx="427.05" cy="180.26" r="6.38"/>
    <circle class="c" cx="412.09" cy="188.89" r="6.38"/>
    <circle class="c" cx="420.72" cy="163.97" r="6.38"/>
    <circle class="c" cx="412.78" cy="175.46" r="3.72"/>
    <circle class="c" cx="398.86" cy="176.59" r="6.38"/>
    <circle class="c" cx="386.28" cy="165.44" r="6.38"/>
    <circle class="c" cx="414.38" cy="147.68" r="6.38"/>
    <circle class="c" cx="402.57" cy="159.11" r="6.38"/>
    <circle class="c" cx="409.86" cy="131.88" r="6.38"/>
    <circle class="c" cx="372.07" cy="156.77" r="6.38"/>
    <circle class="c" cx="357.86" cy="148.1" r="6.38"/>
    <circle class="c" cx="385.15" cy="151.52" r="3.72"/>
    <circle class="c" cx="392.16" cy="154.37" r="2.13"/>
    <circle class="c" cx="410.16" cy="167.86" r="2.13"/>
    <circle class="c" cx="437.33" cy="259.1" r="6.38"/>
    <circle class="c" cx="442.64" cy="243.33" r="6.38"/>
    <circle class="c" cx="425.63" cy="246.33" r="6.38"/>
    <circle class="c" cx="442.26" cy="225.86" r="6.38"/>
    <circle class="c" cx="430.87" cy="233.94" r="3.72"/>
    <circle class="c" cx="417.4" cy="230.24" r="6.38"/>
    <circle class="c" cx="409.4" cy="215.46" r="6.38"/>
    <circle class="c" cx="441.88" cy="208.38" r="6.38"/>
    <circle class="c" cx="426.87" cy="215.08" r="6.38"/>
    <circle class="c" cx="443.03" cy="191.99" r="6.38"/>
    <circle class="c" cx="399.01" cy="202.45" r="6.38"/>
    <circle class="c" cx="388.62" cy="189.44" r="6.38"/>
    <circle class="c" cx="413.09" cy="201.99" r="3.72"/>
    <circle class="c" cx="418.71" cy="207.07" r="2.13"/>
    <circle class="c" cx="431.01" cy="225.9" r="2.13"/>
    <circle class="c" cx="425.33" cy="320.93" r="6.38"/>
    <circle class="c" cx="435.72" cy="307.93" r="6.38"/>
    <circle class="c" cx="418.71" cy="304.93" r="6.38"/>
    <circle class="c" cx="441.34" cy="291.38" r="6.38"/>
    <circle class="c" cx="427.87" cy="295.07" r="3.72"/>
    <circle class="c" cx="416.48" cy="286.99" r="6.38"/>
    <circle class="c" cx="414.01" cy="270.37" r="6.38"/>
    <circle class="c" cx="446.95" cy="274.83" r="6.38"/>
    <circle class="c" cx="430.56" cy="275.99" r="6.38"/>
    <circle class="c" cx="453.65" cy="259.82" r="6.38"/>
    <circle class="c" cx="408.7" cy="254.59" r="6.38"/>
    <circle class="c" cx="403.39" cy="238.82" r="6.38"/>
    <circle class="c" cx="422.09" cy="258.98" r="3.72"/>
    <circle class="c" cx="425.63" cy="265.67" r="2.13"/>
    <circle class="c" cx="430.75" cy="287.57" r="2.13"/>
    <circle class="c" cx="392.91" cy="374.93" r="6.38"/>
    <circle class="c" cx="407.12" cy="366.26" r="6.38"/>
    <circle class="c" cx="392.16" cy="357.63" r="6.38"/>
    <circle class="c" cx="418.06" cy="352.63" r="6.38"/>
    <circle class="c" cx="404.14" cy="351.5" r="3.72"/>
    <circle class="c" cx="396.2" cy="340.01" r="6.38"/>
    <circle class="c" cx="399.57" cy="323.55" r="6.38"/>
    <circle class="c" cx="429" cy="339" r="6.38"/>
    <circle class="c" cx="413.2" cy="334.48" r="6.38"/>
    <circle class="c" cx="440.42" cy="327.19" r="6.38"/>
    <circle class="c" cx="399.97" cy="306.9" r="6.38"/>
    <circle class="c" cx="400.37" cy="290.26" r="6.38"/>
    <circle class="c" cx="411.06" cy="315.61" r="3.72"/>
    <circle class="c" cx="412.09" cy="323.11" r="2.13"/>
    <circle class="c" cx="409.41" cy="345.44" r="2.13"/>
    <circle class="c" cx="343.98" cy="414.59" r="6.38"/>
    <circle class="c" cx="360.3" cy="411.3" r="6.38"/>
    <circle class="c" cx="349.19" cy="398.07" r="6.38"/>
    <circle class="c" cx="375.24" cy="402.23" r="6.38"/>
    <circle class="c" cx="362.54" cy="396.41" r="3.72"/>
    <circle class="c" cx="359.01" cy="382.9" r="6.38"/>
    <circle class="c" cx="367.81" cy="368.58" r="6.38"/>
    <circle class="c" cx="390.17" cy="393.17" r="6.38"/>
    <circle class="c" cx="376.87" cy="383.52" r="6.38"/>
    <circle class="c" cx="404.95" cy="385.97" r="6.38"/>
    <circle class="c" cx="373.88" cy="353.08" r="6.38"/>
    <circle class="c" cx="379.95" cy="337.57" r="6.38"/>
    <circle class="c" cx="381.32" cy="365.04" r="3.72"/>
    <circle class="c" cx="379.73" cy="372.45" r="2.13"/>
    <circle class="c" cx="369.57" cy="392.51" r="2.13"/>
    <circle class="c" cx="284.43" cy="435.11" r="6.38"/>
    <circle class="c" cx="300.89" cy="437.61" r="6.38"/>
    <circle class="c" cx="294.98" cy="421.38" r="6.38"/>
    <circle class="c" cx="318.03" cy="434.2" r="6.38"/>
    <circle class="c" cx="308.09" cy="424.38" r="3.72"/>
    <circle class="c" cx="309.4" cy="410.47" r="6.38"/>
    <circle class="c" cx="322.56" cy="400.03" r="6.38"/>
    <circle class="c" cx="335.17" cy="430.79" r="6.38"/>
    <circle class="c" cx="325.97" cy="417.17" r="6.38"/>
    <circle class="c" cx="351.51" cy="429.08" r="6.38"/>
    <circle class="c" cx="333.57" cy="387.54" r="6.38"/>
    <circle class="c" cx="344.57" cy="375.05" r="6.38"/>
    <circle class="c" cx="336.47" cy="401.33" r="3.72"/>
    <circle class="c" cx="332.44" cy="407.74" r="2.13"/>
    <circle class="c" cx="316.03" cy="423.12" r="2.13"/>
    <circle class="c" cx="221.46" cy="434.04" r="6.38"/>
    <circle class="c" cx="236.07" cy="442.01" r="6.38"/>
    <circle class="c" cx="236.07" cy="424.74" r="6.38"/>
    <circle class="c" cx="253.34" cy="444.66" r="6.38"/>
    <circle class="c" cx="247.36" cy="432.04" r="3.72"/>
    <circle class="c" cx="253.34" cy="419.42" r="6.38"/>
    <circle class="c" cx="269.29" cy="414.11" r="6.38"/>
    <circle class="c" cx="270.61" cy="447.32" r="6.38"/>
    <circle class="c" cx="266.63" cy="431.38" r="6.38"/>
    <circle class="c" cx="286.56" cy="451.31" r="6.38"/>
    <circle class="c" cx="283.9" cy="406.13" r="6.38"/>
    <circle class="c" cx="298.52" cy="398.16" r="6.38"/>
    <circle class="c" cx="281.91" cy="420.08" r="3.72"/>
    <circle class="c" cx="275.93" cy="424.74" r="2.13"/>
    <circle class="c" cx="255.25" cy="433.57" r="2.13"/>
  </g>
  <path class="b" d="M234.13,205.07v101.86h-20.85v-101.86h20.85ZM249.1,306.93h-26.39v-17.98h25.36c6.56,0,12.07-1.16,16.51-3.49s7.78-5.92,10.01-10.8c2.23-4.88,3.35-11.12,3.35-18.73s-1.13-13.77-3.38-18.63-5.58-8.44-9.98-10.77c-4.4-2.32-9.86-3.49-16.37-3.49h-25.98v-17.98h27.21c10.21,0,18.99,2.04,26.35,6.12,7.36,4.08,13.02,9.91,16.99,17.5s5.95,16.67,5.95,27.24-1.98,19.73-5.95,27.34c-3.96,7.61-9.65,13.46-17.06,17.53-7.41,4.08-16.28,6.12-26.63,6.12Z"/>
</svg>